<svg width="32" height="32" viewBox="0 0 32 32" fill="none" xmlns="http://www.w3.org/2000/svg">
<path d="M16.0001 6.66666C5.82273 6.66666 2.76406 15.4893 2.73606 15.5787L2.59473 16L2.73473 16.4213C2.76406 16.5107 5.82273 25.3333 16.0001 25.3333C26.1774 25.3333 29.2361 16.5107 29.2641 16.4213L29.4054 16L29.2654 15.5787C29.2361 15.4893 26.1774 6.66666 16.0001 6.66666ZM16.0001 21.3333C13.0587 21.3333 10.6667 18.9413 10.6667 16C10.6667 13.0587 13.0587 10.6667 16.0001 10.6667C18.9414 10.6667 21.3334 13.0587 21.3334 16C21.3334 18.9413 18.9414 21.3333 16.0001 21.3333Z" fill="black"/>
<path d="M16.0002 13.3333C14.5548 13.3333 13.3335 14.5547 13.3335 16C13.3335 17.4453 14.5548 18.6667 16.0002 18.6667C17.4455 18.6667 18.6668 17.4453 18.6668 16C18.6668 14.5547 17.4455 13.3333 16.0002 13.3333Z" fill="black"/>
</svg>
